<?xml version="1.0" encoding="utf-8"?>
<!-- Generator: Adobe Illustrator 25.0.0, SVG Export Plug-In . SVG Version: 6.00 Build 0)  -->
<svg version="1.1" id="Capa_1" xmlns="http://www.w3.org/2000/svg" xmlns:xlink="http://www.w3.org/1999/xlink" x="0px" y="0px"
	 viewBox="0 0 58.8 58.8" style="enable-background:new 0 0 58.8 58.8;" xml:space="preserve">
<style type="text/css">
	.st0{fill:#FFFFFF;}
</style>
<g>
	<path class="st0" d="M57.7,32c0.3-2.2,0.4-4.5,0.1-6.6c0-0.1,0-0.1,0-0.2c-0.6-5.1-2.7-9.8-6.4-13.5c-0.7-0.7-1.4-1.3-2.2-1.9
		c-0.6-0.8-1.2-1.5-1.9-2.2C37.6-2.2,20.8-1.1,9.9,9.9c-11,11-12,27.7-2.4,37.4c0.7,0.7,1.4,1.3,2.2,1.9c0.6,0.8,1.3,1.6,1.9,2.2
		c3.3,3.3,7.3,5.3,11.7,6.1c0,0,0,0,0.1,0c0.1,0,0.2,0,0.3,0c0,0,0,0,0.1,0c0,0,0,0,0,0c1.4,0.3,2.9,0.4,4.4,0.4
		c0.9,0,1.8,0,2.7-0.1c0,0,0,0,0,0c0,0,0.1,0,0.1,0c2.3-0.2,4.6-0.8,6.8-1.6c0,0,0.1,0,0.1,0c1.6-0.6,3.1-1.3,4.6-2.2
		c0.1,0,0.2-0.1,0.3-0.2c1.4-0.8,2.8-1.8,4.1-2.9c0,0,0,0,0,0c0,0,0,0,0,0c0.7-0.6,1.5-1.3,2.2-2c3-3,5.3-6.5,6.8-10.1
		c0,0,0-0.1,0-0.1c0.9-2.2,1.5-4.4,1.8-6.6C57.7,32.1,57.7,32,57.7,32z M54.5,36.7l-2.6-2.6c0.1-0.3,0.3-0.7,0.4-1.1
		c0.1-0.2,0.1-0.3,0.2-0.5c0.1-0.4,0.3-0.8,0.4-1.2c0-0.2,0.1-0.3,0.1-0.5c0.1-0.3,0.2-0.7,0.2-1l2.5,2.5
		C55.4,33.8,55,35.2,54.5,36.7z M52.4,41.4l-2.7-2.7c0.1-0.1,0.1-0.2,0.2-0.3c0,0,0-0.1,0.1-0.1c0.3-0.5,0.6-1.1,0.9-1.6
		c0.1-0.1,0.1-0.2,0.2-0.3c0-0.1,0.1-0.2,0.1-0.3l2.6,2.6C53.3,39.6,52.9,40.5,52.4,41.4z M49.6,45.4l-2.7-2.7
		c0.3-0.3,0.5-0.6,0.8-1c0,0,0,0,0.1-0.1c0.3-0.4,0.6-0.9,1-1.3l2.7,2.7C50.8,43.9,50.2,44.7,49.6,45.4z M53.6,27.5
		c0-0.2,0-0.4,0.1-0.5c0.1-0.5,0.1-0.9,0.1-1.4c0-0.3,0-0.5,0-0.8c0-0.3,0-0.5,0-0.8c0-0.1,0-0.2,0-0.3l2.1,2.1
		c0.1,1.4,0.2,2.8,0,4.2L53.6,27.5z M52.6,16.2c1.2,1.9,2.1,4,2.7,6.2l-1.7-1.7c0-0.2,0-0.3-0.1-0.5c0-0.3-0.1-0.5-0.1-0.8
		c-0.1-0.5-0.2-0.9-0.3-1.4c0-0.2-0.1-0.4-0.2-0.6c-0.1-0.3-0.2-0.7-0.3-1C52.7,16.4,52.7,16.3,52.6,16.2z M11.2,11.2
		C16.8,5.7,24,2.8,30.8,2.8c5.7,0,11.1,2,15.1,6c0.5,0.5,1.1,1.1,1.5,1.7l0.3,0.3c0,0,0,0.1,0.1,0.1c0.4,0.6,0.8,1.2,1.2,1.8
		c0,0,0,0,0,0c0.4,0.6,0.7,1.2,1,1.8c0,0,0,0.1,0,0.1c0.3,0.6,0.5,1.2,0.7,1.8c0,0.1,0,0.1,0.1,0.2c0.2,0.6,0.3,1.1,0.5,1.7
		c0,0.1,0.1,0.3,0.1,0.4c0.1,0.5,0.2,1.1,0.3,1.6c0,0.2,0.1,0.4,0.1,0.6c0.1,0.5,0.1,1,0.1,1.6c0,0.2,0,0.4,0,0.6c0,0.5,0,1,0,1.6
		c0,0.2,0,0.4,0,0.6c0,0.5-0.1,1.1-0.1,1.6c0,0.2-0.1,0.4-0.1,0.6c-0.1,0.6-0.2,1.1-0.3,1.7c0,0.1-0.1,0.3-0.1,0.4
		c-0.1,0.6-0.3,1.1-0.4,1.7c0,0.1,0,0.2-0.1,0.3c-0.2,0.6-0.4,1.3-0.7,1.9c0,0.1-0.1,0.2-0.1,0.3c-0.3,0.6-0.5,1.2-0.8,1.8
		c0,0.1-0.1,0.2-0.1,0.3c-0.3,0.6-0.6,1.2-1,1.8c-0.1,0.1-0.1,0.2-0.2,0.3c-0.4,0.6-0.7,1.2-1.2,1.8c-0.1,0.1-0.1,0.2-0.2,0.2
		c-0.4,0.6-0.9,1.2-1.3,1.7c0,0.1-0.1,0.1-0.1,0.2c-0.5,0.6-1,1.1-1.6,1.7c-0.6,0.6-1.1,1.1-1.7,1.6c-0.1,0-0.1,0.1-0.2,0.1
		c-0.6,0.5-1.1,0.9-1.7,1.3c-0.1,0.1-0.1,0.1-0.2,0.2c-0.6,0.4-1.2,0.8-1.8,1.2c-0.1,0.1-0.2,0.1-0.2,0.2c-0.6,0.4-1.2,0.7-1.8,1
		c-0.1,0-0.2,0.1-0.3,0.1c-0.6,0.3-1.2,0.6-1.9,0.8c-0.1,0-0.2,0.1-0.2,0.1c-0.6,0.3-1.3,0.5-1.9,0.7c-0.1,0-0.1,0-0.2,0.1
		c-0.6,0.2-1.2,0.3-1.8,0.5c-0.1,0-0.2,0.1-0.3,0.1c-0.6,0.1-1.2,0.2-1.8,0.3c-0.2,0-0.3,0.1-0.5,0.1c-0.6,0.1-1.1,0.1-1.7,0.1
		c-0.2,0-0.4,0-0.6,0c-0.5,0-1.1,0-1.6,0c-0.2,0-0.4,0-0.6,0c-0.5,0-1.1-0.1-1.6-0.2c-0.2,0-0.4-0.1-0.5-0.1
		c-0.6-0.1-1.1-0.2-1.7-0.3c-0.1,0-0.2-0.1-0.4-0.1c-0.6-0.1-1.2-0.3-1.7-0.5c0,0-0.1,0-0.1,0c-0.6-0.2-1.2-0.5-1.9-0.8
		c0,0,0,0-0.1,0c-0.6-0.3-1.2-0.6-1.8-1c0,0,0,0,0,0c-0.6-0.4-1.2-0.8-1.8-1.2c0,0-0.1,0-0.1-0.1l-0.3-0.3c-0.6-0.5-1.2-1-1.7-1.5
		C-0.1,37,1,21.4,11.2,11.2z M42.2,51.8l-2.7-2.7c0.1-0.1,0.3-0.2,0.4-0.2c0,0,0.1,0,0.1-0.1c0.5-0.3,1-0.7,1.5-1.1
		c0.1-0.1,0.2-0.2,0.4-0.3c0,0,0,0,0,0l2.7,2.7C43.9,50.8,43.1,51.3,42.2,51.8z M37.7,54.1l-2.6-2.6c0.5-0.2,0.9-0.4,1.4-0.6
		c0.1-0.1,0.2-0.1,0.3-0.2c0.4-0.2,0.7-0.4,1.1-0.6l2.7,2.7C39.6,53.3,38.6,53.8,37.7,54.1z M31.1,55.8l-2.4-2.4
		c0.2,0,0.4-0.1,0.6-0.1c0.5-0.1,1-0.2,1.6-0.4c0.2,0,0.3-0.1,0.5-0.1c0.4-0.1,0.8-0.2,1.2-0.4c0.2-0.1,0.3-0.1,0.5-0.2l2.6,2.6
		C34.1,55.3,32.6,55.6,31.1,55.8z M16.9,52.8c0.2,0.1,0.4,0.1,0.6,0.2c0.5,0.1,1.1,0.3,1.6,0.4l1.3,1.3c-1.5-0.5-2.9-1.2-4.2-2.1
		C16.4,52.7,16.6,52.7,16.9,52.8z M24.1,55.7l-1.9-1.9c0.5,0,1.1,0.1,1.6,0.1c0,0,0.1,0,0.1,0c0.2,0,0.4,0,0.7,0
		c0.5,0,0.9,0,1.4-0.1c0.1,0,0.2,0,0.3,0l2.3,2.3C27.1,56,25.6,55.9,24.1,55.7z M46.2,48.9l-2.7-2.7c0,0,0,0,0,0
		c0.5-0.4,0.9-0.9,1.4-1.3c0.2-0.2,0.4-0.5,0.7-0.7l2.7,2.7c-0.2,0.2-0.4,0.5-0.7,0.7C47.1,48.1,46.7,48.5,46.2,48.9z"/>
	<path class="st0" d="M24,50c0.5,0,1,0,1.5-0.1c0.2,0,0.3,0,0.5,0c0.4,0,0.7-0.1,1.1-0.1c0.2,0,0.3,0,0.5-0.1
		c0.5-0.1,0.9-0.2,1.4-0.3c0.2,0,0.3-0.1,0.5-0.1c0.3-0.1,0.7-0.2,1-0.3c0.2-0.1,0.4-0.1,0.6-0.2c0.3-0.1,0.7-0.2,1-0.3
		c0.2-0.1,0.3-0.1,0.5-0.2c0.5-0.2,0.9-0.4,1.4-0.6c0.1-0.1,0.3-0.1,0.4-0.2c0.4-0.2,0.7-0.3,1.1-0.5c0.1-0.1,0.3-0.1,0.4-0.2
		c0.5-0.3,0.9-0.5,1.4-0.8c0,0,0,0,0,0l1.2-0.7l0,0c1.4-1,2.7-2,3.9-3.2c4.6-4.6,7.3-10.4,7.8-16.4c0.5-6.1-1.4-11.6-5.4-15.5
		C41,6.7,36.1,4.7,30.8,4.7c-6.5,0-13.2,2.9-18.2,7.9C8.1,17.2,5.3,23,4.8,29C4.3,35,6.2,40.6,10.2,44.5C13.7,48,18.6,50,24,50z
		 M11.6,43.1c-0.2-0.2-0.4-0.4-0.5-0.6c0.3-1.3,1.2-2.4,2.3-2.7l5.8-1.4c0.8-0.2,1.4-0.8,1.5-1.6l0.4-2.3l-0.5-0.4
		c-2-1.4-3.1-3.5-3.3-6.3l0-0.6L16.8,27c-0.6-0.3-0.9-0.9-0.7-1.6l0.3-1.2c0.1-0.6,0.6-1.1,1.2-1.4l0.4-0.2l0.1-0.4
		c0.4-1.2,0.9-2.2,1.5-3.2c0.3-0.4,0.5-0.7,0.6-0.9c0.7-1,0.9-1.4,0.9-2.9c0.1,0.1,0.2,0.1,0.3,0.2c1.4,1,3.4,1.4,5.8,1.3
		c0.2,0,0.5,0,0.8,0c6.4,0,9.6,2.3,9.8,6.9l0,0.6l0.5,0.3c0.9,0.5,1.4,1.2,1.3,2L39.4,28c-0.1,1-1,1.7-2.3,1.9l-0.5,0.1l-0.2,0.5
		c-1.4,3.2-3.7,5-6.9,5.6l-0.7,0.1l-0.4,2.6c-0.1,0.8,0.3,1.7,1,2.2l5.5,4.2c0,0-0.1,0.1-0.1,0.1c-0.3,0.2-0.7,0.3-1,0.5
		c-0.1,0.1-0.3,0.1-0.4,0.2c-0.3,0.1-0.6,0.2-0.8,0.4c-0.1,0.1-0.3,0.1-0.4,0.2c-0.3,0.1-0.6,0.2-0.8,0.3c-0.1,0-0.3,0.1-0.4,0.1
		c-0.4,0.1-0.8,0.2-1.2,0.4c-0.2,0-0.3,0.1-0.5,0.1c-0.3,0.1-0.5,0.1-0.8,0.2c-0.2,0-0.4,0.1-0.5,0.1c-0.3,0-0.5,0.1-0.8,0.1
		c-0.2,0-0.3,0-0.5,0.1c-0.3,0-0.6,0.1-0.8,0.1c-0.1,0-0.3,0-0.4,0c-0.4,0-0.8,0-1.3,0C19.1,48,14.7,46.3,11.6,43.1z M6.7,29.1
		c0.4-5.5,3-10.9,7.2-15.2c4.6-4.6,10.8-7.3,16.8-7.3c4.8,0,9.2,1.7,12.4,4.9c3.5,3.5,5.3,8.5,4.8,14c-0.4,5.5-3,10.9-7.2,15.2
		c-1.3,1.3-2.7,2.4-4.1,3.4l-6.1-4.7c-0.2-0.1-0.2-0.3-0.2-0.4l0.2-1.2c3.3-0.8,5.8-2.9,7.4-6.1c1.9-0.4,3.3-1.8,3.4-3.5l0.2-1.6
		c0.1-1.4-0.6-2.8-1.9-3.6c-0.3-3.9-2.7-8.2-11.7-8.2c-0.3,0-0.6,0-0.9,0c-1.9,0.1-3.5-0.2-4.6-0.9c-0.6-0.4-0.9-0.7-1-0.9
		c-0.3-0.4-0.8-0.6-1.3-0.5c-0.5,0.1-0.9,0.6-1,1.1c0,0.5-0.1,1,0,1.5c0,1.2,0,1.2-0.5,2c-0.2,0.3-0.4,0.6-0.7,1
		c-0.6,1-1.2,2.1-1.6,3.2c-1,0.5-1.7,1.5-1.9,2.5L14.2,25c-0.3,1.3,0.2,2.7,1.3,3.4c0.3,2.9,1.4,5.2,3.5,6.9l-0.2,1.1
		c0,0.1,0,0.1-0.1,0.1L12.8,38c-1.4,0.4-2.5,1.4-3.2,2.8C7.4,37.5,6.4,33.5,6.7,29.1z"/>
</g>
</svg>
